#!OML:ASF E:\Steps\Project 1\Capture day 1\Session 2\Subject.ASF
:FULLY-SPECIFIED
:DEGREES
975
root -6.36701 16.0713 -15.2253 -146.754 -88.8071 168.861
lowerback -25.4878 -4.12346 -8.18032
upperback 0.690476 -2.79939 -2.10584
thorax 15.4976 -1.83892 1.13586
lowerneck 1.95915 3.8486 7.79777
upperneck 16.1508 4.63797 -1.24647
head 4.76599 2.44934 -1.51663
rclavicle -1.98785e-014 6.36111e-015
rhumerus -44.273 -18.4433 -75.5006
rradius 30.1821
rwrist -1.45011
rhand -3.89368 -54.2952
rfingers 7.12502
rthumb 21.8561 -443.081
lclavicle -1.98785e-014 6.36111e-015
lhumerus -23.7332 -0.844003 78.7206
lradius 42.8923
lwrist 4.49388
lhand -24.9317 -12.7385
lfingers 7.12502
lthumb 1.5775 17.2355
rfemur -40.8604 7.44794 17.8494
rtibia 42.422
rfoot -19.9622 -12.1578
rtoes -43.0949
lfemur -31.7632 -8.0148 -18.4773
ltibia 14.09
lfoot -4.10832 1.43303
ltoes -26.935
976
root -6.42412 16.0819 -15.2228 -141.993 -89.1073 164.123
lowerback -25.4583 -4.20833 -8.20243
upperback 0.687835 -2.91838 -2.0226
thorax 15.4949 -1.89695 1.2004
lowerneck 2.28598 3.66886 7.57233
upperneck 15.7531 4.40291 -0.972735
head 4.56668 2.33213 -1.41268
rclavicle -3.93594e-014 -8.42847e-014
rhumerus -44.4696 -18.4752 -75.3205
rradius 29.9577
rwrist -1.05552
rhand -3.86135 -54.1974
rfingers 7.12502
rthumb 21.8871 -442.979
lclavicle -3.93594e-014 -8.42847e-014
lhumerus -23.607 -1.49972 78.6224
lradius 43.7666
lwrist 5.20334
lhand -24.9651 -13.0728
lfingers 7.12502
lthumb 1.54526 16.9013
rfemur -40.6033 8.18001 17.4094
rtibia 40.4459
rfoot -20.5319 -11.8453
rtoes -42.964
lfemur -31.5117 -8.52812 -18.3778
ltibia 13.9261
lfoot -4.27325 1.64612
ltoes -26.1925
977
root -6.48272 16.0903 -15.2178 -126.39 -89.3083 148.487
lowerback -25.4115 -4.35635 -8.33972
upperback 0.719358 -3.08735 -1.92375
thorax 15.5377 -1.98833 1.32712
lowerneck 2.77243 3.50779 7.40692
upperneck 14.8312 4.19801 -0.639308
head 4.66032 2.23679 -1.40257
rclavicle 1.51076e-014 2.8625e-014
rhumerus -44.4643 -18.3667 -75.1849
rradius 29.6263
rwrist -0.715712
rhand -3.77561 -54.238
rfingers 7.12502
rthumb 21.9694 -443.01
lclavicle 1.51076e-014 2.8625e-014
lhumerus -23.5964 -2.42635 78.4744
lradius 44.7368
lwrist 6.27583
lhand -25.435 -12.8753
lfingers 7.12502
lthumb 1.09148 17.1017
rfemur -40.2956 9.00232 16.653
rtibia 38.5324
rfoot -22.007 -9.63989
rtoes -35.8162
lfemur -31.1684 -9.18249 -18.4176
ltibia 13.7451
lfoot -4.36644 1.93784
ltoes -27.1036
978
root -6.54187 16.0994 -15.2145 -110.475 -89.4518 132.371
lowerback -25.238 -4.49765 -8.3656
upperback 0.777105 -3.29034 -1.84016
thorax 15.5369 -2.08463 1.36558
lowerneck 3.56143 3.32329 7.22634
upperneck 14.1336 3.99237 -0.295166
head 4.22181 2.12813 -1.27205
rclavicle 2.22639e-014 4.92986e-014
rhumerus -44.3665 -18.3428 -75.05
rradius 29.1457
rwrist -0.296675
rhand -3.65878 -54.0365
rfingers 7.12502
rthumb 22.0816 -442.796
lclavicle 2.22639e-014 4.92986e-014
lhumerus -23.3583 -3.11778 78.1308
lradius 45.3684
lwrist 7.30343
lhand -25.7444 -12.4143
lfingers 7.12502
lthumb 0.792593 17.564
rfemur -39.5746 11.2573 15.4595
rtibia 36.2198
rfoot -23.6625 -6.85041
rtoes -19.2845
lfemur -30.7033 -8.97131 -18.6824
ltibia 13.7318
lfoot -4.27223 1.50196
ltoes -29.0471
979
root -6.5992 16.094 -15.2103 -98.4199 -89.5249 120.627
lowerback -25.6143 -4.60502 -8.25889
upperback 1.05013 -3.42737 -1.80398
thorax 15.2916 -2.1425 1.25314
lowerneck 3.34773 3.26768 6.4323
upperneck 14.5537 3.83815 0.107605
head 4.3697 2.02838 -0.995885
rclavicle 7.95139e-016 4.6118e-014
rhumerus -44.3952 -18.36 -75.0522
rradius 28.8361
rwrist 0.038945
rhand -3.93693 -53.9168
rfingers 7.12502
rthumb 21.8145 -442.707
lclavicle 7.95139e-016 4.6118e-014
lhumerus -23.3518 -1.20713 78.5062
lradius 45.6263
lwrist 5.62195
lhand -25.411 -13.0172
lfingers 7.12502
lthumb 1.1146 16.9596
rfemur -39.6639 11.9504 15.1917
rtibia 34.5735
rfoot -23.2897 -8.14064
rtoes -31.9145
lfemur -30.9094 -8.39011 -18.9003
ltibia 13.8876
lfoot -4.1999 0.848572
ltoes -30.4358
980
root -6.66196 16.1103 -15.2121 -70.5763 -89.5604 92.3199
lowerback -25.2519 -4.72312 -8.37694
upperback 1.18101 -3.58011 -1.75572
thorax 15.289 -2.22252 1.3263
lowerneck 3.02361 3.30607 6.02435
upperneck 14.8883 3.85585 0.147414
head 4.54116 2.02107 -0.904172
rclavicle 6.95746e-015 3.33958e-014
rhumerus -44.4476 -18.3939 -75.0663
rradius 28.6712
rwrist 0.301128
rhand -4.52359 -54.0214
rfingers 7.12502
rthumb 21.2511 -442.876
lclavicle 6.95746e-015 3.33958e-014
lhumerus -23.1277 -0.881149 78.4915
lradius 45.8368
lwrist 5.52772
lhand -25.1957 -13.441
lfingers 7.12502
lthumb 1.32252 16.5347
rfemur -38.6232 12.5113 15.1185
rtibia 32.5456
rfoot -22.8768 -8.57998
rtoes -40.4201
lfemur -29.9873 -8.15132 -19.1613
ltibia 13.6422
lfoot -4.18806 0.340759
ltoes -30.0314
